<svg width="21" height="21" viewBox="0 0 21 21" fill="none" xmlns="http://www.w3.org/2000/svg">
<path fill-rule="evenodd" clip-rule="evenodd" d="M17.9835 0.14239C18.2155 0.044497 18.4499 0 18.6791 0C19.9687 0 21.0855 1.41136 20.5427 2.72969L12.8667 19.5487C12.4963 20.3513 11.7983 20.7113 11.1063 20.7113C10.1251 20.7113 9.15671 19.9864 9.15671 18.7725V11.6566H2.12031C0.0735088 11.6566 -0.566091 8.8104 1.35271 7.90468L17.9835 0.14239ZM11.7071 19.0018L19.3811 2.18761C19.4567 2.00153 19.3715 1.79442 19.2839 1.66133C19.1391 1.44168 18.8963 1.29403 18.6795 1.29403C18.6107 1.29403 18.5443 1.30778 18.4759 1.3365L1.88871 9.07938C1.44991 9.28649 1.45671 9.65258 1.50071 9.85201C1.53471 10.0057 1.66231 10.3629 2.12031 10.3629H10.4355V18.7728C10.4355 19.2829 10.8739 19.4176 11.1059 19.4176C11.3775 19.4176 11.5799 19.2777 11.7071 19.0018Z" fill="#6094C8"/>
</svg>
