<svg width="23" height="22" viewBox="0 0 23 22" fill="none" xmlns="http://www.w3.org/2000/svg">
<path d="M20.5357 0H2.46429C1.1033 0 0 1.05533 0 2.35714V19.6429C0 20.9447 1.1033 22 2.46429 22H9.5106V14.5205H6.27623V11H9.5106V8.31679C9.5106 5.26478 11.4102 3.57893 14.3196 3.57893C15.7129 3.57893 17.1699 3.81661 17.1699 3.81661V6.81214H15.5645C13.9828 6.81214 13.4894 7.75107 13.4894 8.71406V11H17.0205L16.4558 14.5205H13.4894V22H20.5357C21.8967 22 23 20.9447 23 19.6429V2.35714C23 1.05533 21.8967 0 20.5357 0V0Z" fill="white"/>
</svg>
