<svg width="23" height="24" viewBox="0 0 23 24" fill="none" xmlns="http://www.w3.org/2000/svg">
<path d="M20 0.645508H2.4C1.07452 0.645508 0 1.73216 0 3.07261V20.8714C0 22.2119 1.07452 23.2985 2.4 23.2985H9.2625V15.597H6.1125V11.972H9.2625V9.20915C9.2625 6.06655 11.1125 4.33066 13.946 4.33066C15.303 4.33066 16.722 4.5754 16.722 4.5754V7.65985H15.1585C13.618 7.65985 13.1375 8.62664 13.1375 9.61822V11.972H16.5765L16.0265 15.597H13.1375V23.2985H20C21.3255 23.2985 22.4 22.2119 22.4 20.8714V3.07261C22.4 1.73216 21.3255 0.645508 20 0.645508V0.645508Z" fill="black"/>
</svg>
