<svg width="23" height="24" viewBox="0 0 23 24" fill="none" xmlns="http://www.w3.org/2000/svg">
<path fill-rule="evenodd" clip-rule="evenodd" d="M20 0.645508H2.4C1.07452 0.645508 0 1.73216 0 3.07261V20.8714C0 22.2119 1.07452 23.2985 2.4 23.2985H20C21.3255 23.2985 22.4 22.2119 22.4 20.8714V3.07261C22.4 1.73216 21.3255 0.645508 20 0.645508ZM15.915 5.66407C16.6105 5.94162 17.1611 6.49839 17.4355 7.20175L17.4375 7.20225C17.7957 8.11639 17.7759 10.1067 17.7631 11.3971L17.7631 11.3978C17.7609 11.611 17.759 11.8051 17.759 11.972C17.759 12.139 17.7609 12.3332 17.7631 12.5466V12.5467V12.5468V12.5469V12.5471C17.7759 13.838 17.7957 15.8307 17.4375 16.7418C17.1631 17.4452 16.6125 18.0019 15.917 18.2795C15.014 18.642 13.0493 18.6218 11.7729 18.6088H11.7729H11.7728H11.7728H11.7727H11.7727C11.5608 18.6066 11.3679 18.6046 11.202 18.6046C11.0392 18.6046 10.8504 18.6064 10.6431 18.6085H10.643H10.643H10.6429H10.6428C9.36612 18.6209 7.38977 18.6401 6.4865 18.2795C5.791 18.0019 5.24044 17.4452 4.966 16.7418C4.60777 15.8244 4.62662 13.8225 4.63876 12.5326C4.64072 12.3245 4.6425 12.135 4.6425 11.9715C4.6425 11.8075 4.64071 11.6173 4.63873 11.4084C4.62656 10.1178 4.60767 8.11569 4.964 7.20175C5.23844 6.49839 5.789 5.94162 6.4845 5.66407C7.38757 5.30154 9.35308 5.3217 10.6293 5.33479C10.8412 5.33697 11.0341 5.33894 11.2 5.33894C11.3628 5.33894 11.5516 5.33711 11.7588 5.33509L11.7589 5.33509C13.0353 5.32268 15.0117 5.30346 15.915 5.66407ZM8.534 11.9727C8.53363 10.4832 9.72719 9.27546 11.2 9.2749C12.6729 9.27546 13.8669 10.4825 13.868 11.972C13.868 13.4615 12.6741 14.669 11.2013 14.6691C9.72852 14.6693 8.53437 13.4621 8.534 11.9727ZM11.2 16.1183C8.93563 16.1183 7.1 14.262 7.1 11.972C7.1 9.68208 8.93563 7.82572 11.2 7.82572C13.4644 7.82572 15.3 9.68208 15.3 11.972C15.3013 13.0721 14.8698 14.1275 14.1006 14.9054C13.3314 15.6833 12.2878 16.1197 11.2 16.1183ZM14.5845 8.02249C14.7328 8.38412 15.0819 8.61979 15.469 8.61958L15.471 8.62161C15.7249 8.62147 15.9683 8.51911 16.1474 8.33713C16.3265 8.15514 16.4266 7.90853 16.4255 7.65177C16.4255 7.26029 16.1923 6.90736 15.8346 6.75759C15.4769 6.60782 15.0653 6.69071 14.7916 6.96761C14.518 7.2445 14.4362 7.66086 14.5845 8.02249ZM17.8515 18.6971C18.787 17.7536 19.0795 16.6053 19.144 15.3093C19.2185 13.9724 19.2185 9.97168 19.144 8.64082C19.083 7.34485 18.785 6.19602 17.8515 5.25046C16.918 4.30489 15.783 4.00859 14.5015 3.94336C13.181 3.86802 9.222 3.86802 7.9015 3.94336C6.625 4.00505 5.4905 4.30338 4.5515 5.24692C3.6125 6.19045 3.3235 7.33878 3.259 8.63475C3.1845 9.96916 3.1845 13.9734 3.259 15.3093C3.32 16.6027 3.6145 17.7516 4.5515 18.6971C5.4885 19.6427 6.62 19.939 7.9015 20.0042C9.222 20.0796 13.181 20.0796 14.5015 20.0042C15.7815 19.9425 16.916 19.6407 17.8515 18.6971Z" fill="white"/>
</svg>
