<svg width="25" height="24" viewBox="0 0 25 24" fill="none" xmlns="http://www.w3.org/2000/svg">
<path fill-rule="evenodd" clip-rule="evenodd" d="M21.5799 0.645508H2.58958C1.1594 0.645508 0 1.73216 0 3.07261V20.8714C0 22.2119 1.1594 23.2985 2.58958 23.2985H21.5799C23.01 23.2985 24.1694 22.2119 24.1694 20.8714V3.07261C24.1694 1.73216 23.01 0.645508 21.5799 0.645508ZM17.1722 5.66397C17.9226 5.94151 18.5167 6.49829 18.8128 7.20164L18.8149 7.20215C19.2015 8.11628 19.1801 10.1066 19.1662 11.3969V11.397C19.1639 11.6105 19.1618 11.8048 19.1618 11.9719C19.1618 12.139 19.1639 12.3333 19.1662 12.5468V12.5468V12.5469V12.5469V12.5469C19.1801 13.8379 19.2015 15.8306 18.8149 16.7417C18.5188 17.445 17.9248 18.0018 17.1743 18.2794C16.2 18.6419 14.0801 18.6217 12.7029 18.6086H12.7028H12.7028H12.7027H12.7027H12.7026C12.474 18.6065 12.2659 18.6045 12.0869 18.6045C11.9112 18.6045 11.7075 18.6063 11.4838 18.6083H11.4837H11.4837H11.4836H11.4835C10.106 18.6208 7.97351 18.64 6.99888 18.2794C6.24844 18.0018 5.65439 17.445 5.35827 16.7417C4.97175 15.8242 4.99208 13.8224 5.00518 12.5325V12.5324V12.5323V12.5323V12.5323C5.0073 12.3243 5.00922 12.1348 5.00922 11.9714C5.00922 11.8074 5.00728 11.6172 5.00516 11.4083C4.99202 10.1177 4.97164 8.11559 5.35612 7.20164C5.65224 6.49829 6.24628 5.94151 6.99672 5.66397C7.97113 5.30144 10.0919 5.3216 11.469 5.33469C11.6976 5.33686 11.9057 5.33884 12.0847 5.33884C12.2603 5.33884 12.4641 5.337 12.6877 5.33499L12.6878 5.33499C14.065 5.32258 16.1975 5.30336 17.1722 5.66397ZM9.20812 11.9727C9.20772 10.4833 10.4956 9.27546 12.0847 9.2749C13.6739 9.27546 14.9623 10.4825 14.9635 11.972C14.9635 13.4615 13.6753 14.669 12.0862 14.6691C10.497 14.6693 9.20852 13.4621 9.20812 11.9727ZM12.0847 16.1183C9.64148 16.1183 7.66084 14.2619 7.66084 11.972C7.66084 9.68205 9.64148 7.82568 12.0847 7.82568C14.5279 7.82568 16.5086 9.68205 16.5086 11.972C16.51 13.0721 16.0444 14.1275 15.2144 14.9054C14.3845 15.6832 13.2584 16.1196 12.0847 16.1183ZM15.7366 8.02263C15.8966 8.38426 16.2732 8.61993 16.6909 8.61973L16.6931 8.62175C16.967 8.62162 17.2297 8.51925 17.4229 8.33727C17.6162 8.15529 17.7241 7.90867 17.723 7.65192C17.723 7.26043 17.4714 6.9075 17.0854 6.75773C16.6995 6.60796 16.2553 6.69086 15.9601 6.96775C15.6648 7.24465 15.5766 7.66101 15.7366 8.02263ZM19.2616 18.697C20.271 17.7535 20.5866 16.6051 20.6562 15.3092C20.7366 13.9722 20.7366 9.97155 20.6562 8.64069C20.5904 7.34471 20.2689 6.19588 19.2616 5.25032C18.2544 4.30476 17.0297 4.00845 15.647 3.94322C14.2222 3.86788 9.95047 3.86788 8.52566 3.94322C7.14833 4.00491 5.92421 4.30325 4.91103 5.24678C3.89786 6.19032 3.58603 7.33865 3.51644 8.63462C3.43605 9.96902 3.43605 13.9732 3.51644 15.3092C3.58225 16.6026 3.90002 17.7514 4.91103 18.697C5.92205 19.6426 7.14293 19.9389 8.52566 20.0041C9.95047 20.0794 14.2222 20.0794 15.647 20.0041C17.0281 19.9424 18.2522 19.6405 19.2616 18.697Z" fill="white"/>
</svg>
