<svg width="17" height="27" viewBox="0 0 17 27" fill="none" xmlns="http://www.w3.org/2000/svg">
<path fill-rule="evenodd" clip-rule="evenodd" d="M16.2034 3.18004V24.215C16.2034 25.5549 15.1284 26.6421 13.8034 26.6421H2.60337C1.27837 26.6421 0.203369 25.5549 0.203369 24.215V3.18004C0.203369 1.84007 1.27837 0.75293 2.60337 0.75293H13.8034C15.1284 0.75293 16.2034 1.84007 16.2034 3.18004ZM10.0034 23.406H6.40337C6.07337 23.406 5.80337 23.133 5.80337 22.7992V22.3947C5.80337 22.061 6.07337 21.7879 6.40337 21.7879H10.0034C10.3334 21.7879 10.6034 22.061 10.6034 22.3947V22.7992C10.6034 23.133 10.3334 23.406 10.0034 23.406ZM13.8034 2.37109C14.2434 2.37109 14.6034 2.73515 14.6034 3.18012V24.215C14.6034 24.66 14.2434 25.0241 13.8034 25.0241H2.60337C2.16337 25.0241 1.80337 24.66 1.80337 24.215V3.18012C1.80337 2.73515 2.16337 2.37109 2.60337 2.37109H13.8034Z" fill="#6094C8"/>
</svg>
