<svg width="25" height="24" viewBox="0 0 25 24" fill="none" xmlns="http://www.w3.org/2000/svg">
<path fill-rule="evenodd" clip-rule="evenodd" d="M2.58302 0.645508H21.5252C22.9512 0.645508 24.1082 1.73265 24.1082 3.07261V20.8714C24.1082 22.2114 22.9512 23.2985 21.5252 23.2985H2.58302C1.15698 23.2985 0 22.2114 0 20.8714V3.07261C0 1.73265 1.15698 0.645508 2.58302 0.645508ZM18.9045 9.10483C18.9045 8.96325 18.9045 8.81661 18.8937 8.67503C19.5825 8.20478 20.1852 7.61823 20.6642 6.95583C20.0292 7.21371 19.3404 7.4008 18.63 7.47159C19.3619 7.06202 19.9162 6.41479 20.1799 5.6462C19.5018 6.02544 18.7377 6.30355 17.9412 6.44513C17.2955 5.7979 16.3807 5.39844 15.3636 5.39844C13.2111 5.39844 11.4191 7.22382 11.9196 9.47395C8.99214 9.33237 6.38222 8.01769 4.64406 6.00521C4.33732 6.49569 4.16512 7.06202 4.16512 7.67891C4.16319 8.78852 4.75322 9.8252 5.73646 10.4397C5.16066 10.4195 4.61177 10.2678 4.1436 10.0201V10.0605C4.1436 11.6735 5.35439 13.0084 6.96878 13.3169C6.40912 13.4534 5.91942 13.4534 5.37591 13.3776C5.82256 14.6922 7.12483 15.6479 8.67465 15.6782C7.46386 16.5682 5.94633 17.0941 4.29427 17.0941C4.00368 17.0941 3.72924 17.0839 3.44403 17.0536C5.0046 17.9941 6.86115 18.5402 8.86299 18.5402C15.3528 18.5402 18.9045 13.4888 18.9045 9.10483Z" fill="white"/>
</svg>
