<svg width="23" height="24" viewBox="0 0 23 24" fill="none" xmlns="http://www.w3.org/2000/svg">
<path fill-rule="evenodd" clip-rule="evenodd" d="M2.4 0.645508H20C21.325 0.645508 22.4 1.73265 22.4 3.07261V20.8714C22.4 22.2114 21.325 23.2985 20 23.2985H2.4C1.075 23.2985 0 22.2114 0 20.8714V3.07261C0 1.73265 1.075 0.645508 2.4 0.645508ZM17.565 9.105C17.565 8.96342 17.565 8.81678 17.555 8.6752C18.195 8.20495 18.755 7.6184 19.2 6.956C18.61 7.21388 17.97 7.40097 17.31 7.47176C17.99 7.06219 18.505 6.41496 18.75 5.64638C18.12 6.02561 17.41 6.30372 16.67 6.4453C16.07 5.79807 15.22 5.39861 14.275 5.39861C12.275 5.39861 10.61 7.224 11.075 9.47413C8.355 9.33255 5.93 8.01786 4.315 6.00539C4.03 6.49586 3.87 7.06219 3.87 7.67908C3.8682 8.78869 4.41642 9.82537 5.33 10.4399C4.795 10.4197 4.285 10.268 3.85 10.0202V10.0607C3.85 11.6737 4.975 13.0086 6.475 13.317C5.955 13.4536 5.5 13.4536 4.995 13.3777C5.41 14.6924 6.62 15.6481 8.06 15.6784C6.935 16.5684 5.525 17.0942 3.99 17.0942C3.72 17.0942 3.465 17.0841 3.2 17.0538C4.65 17.9943 6.375 18.5404 8.235 18.5404C14.265 18.5404 17.565 13.489 17.565 9.105Z" fill="white"/>
</svg>
