<svg width="23" height="24" viewBox="0 0 23 24" fill="none" xmlns="http://www.w3.org/2000/svg">
<path fill-rule="evenodd" clip-rule="evenodd" d="M22.4 3.07261V20.8714C22.4 22.2114 21.325 23.2985 20 23.2985H2.4C1.075 23.2985 0 22.2114 0 20.8714V3.07261C0 1.73265 1.075 0.645508 2.4 0.645508H20C21.325 0.645508 22.4 1.73265 22.4 3.07261ZM9.34 9.24659L14.1 11.9821L9.34 14.7177V9.24659ZM19.92 7.52739C20.3 8.97354 20.3 11.9872 20.3 11.9872C20.3 11.9872 20.3 15.0009 19.92 16.4419C19.71 17.2409 19.095 17.8426 18.31 18.055C16.895 18.4443 11.2 18.4443 11.2 18.4443C11.2 18.4443 5.505 18.4443 4.09 18.06C3.305 17.8476 2.69 17.2459 2.48 16.447C2.1 15.0009 2.1 11.9872 2.1 11.9872C2.1 11.9872 2.1 8.96848 2.48 7.52739C2.69 6.72846 3.305 6.10146 4.09 5.88909C5.505 5.49974 11.2 5.49974 11.2 5.49974C11.2 5.49974 16.895 5.49974 18.31 5.88909C19.095 6.10146 19.71 6.72846 19.92 7.52739Z" fill="white"/>
</svg>
