<svg width="26" height="24" viewBox="0 0 26 24" fill="none" xmlns="http://www.w3.org/2000/svg">
<path fill-rule="evenodd" clip-rule="evenodd" d="M26 3.07261V20.8714C26 22.2114 24.798 23.2985 23.3164 23.2985H3.63656C2.15498 23.2985 0.952942 22.2114 0.952942 20.8714V3.07261C0.952942 1.73265 2.15498 0.645508 3.63656 0.645508H23.3164C24.798 0.645508 26 1.73265 26 3.07261ZM11.3967 9.24658L16.7192 11.9821L11.3967 14.7177V9.24658ZM23.2269 7.52716C23.6518 8.97331 23.6518 11.987 23.6518 11.987C23.6518 11.987 23.6518 15.0006 23.2269 16.4417C22.9921 17.2406 22.3044 17.8424 21.4267 18.0547C19.8445 18.4441 13.4765 18.4441 13.4765 18.4441C13.4765 18.4441 7.10848 18.4441 5.52627 18.0598C4.64851 17.8474 3.96083 17.2457 3.72601 16.4468C3.30111 15.0006 3.30111 11.987 3.30111 11.987C3.30111 11.987 3.30111 8.96825 3.72601 7.52716C3.96083 6.72823 4.64851 6.10123 5.52627 5.88886C7.10848 5.49951 13.4765 5.49951 13.4765 5.49951C13.4765 5.49951 19.8445 5.49951 21.4267 5.88886C22.3044 6.10123 22.9921 6.72823 23.2269 7.52716Z" fill="white"/>
</svg>
